<svg width="440" height="956" viewBox="0 0 440 956" fill="none" xmlns="http://www.w3.org/2000/svg">
<rect width="440" height="956" fill="#020D15"/>
<g filter="url(#filter0_d_1_16)">
<rect x="145" y="372" width="150" height="150" rx="25" fill="#020D15"/>
</g>
<path d="M219.7 507C243.55 483 267.4 461.509 267.4 435C267.4 408.49 246.044 387 219.7 387C193.356 387 172 408.49 172 435C172 461.509 195.85 483 219.7 507Z" stroke="#00A9CF" stroke-width="8" stroke-linecap="round" stroke-linejoin="round"/>
<path d="M216.968 468V428.224H201.64V421.92H238.984V428.224H223.656V468H216.968Z" fill="#00A9CF"/>
<path d="M132.98 572V547.14H123.4V543.2H146.74V547.14H137.16V572H132.98ZM153.228 572.6C151.628 572.6 150.288 572.307 149.208 571.72C148.128 571.12 147.308 570.333 146.748 569.36C146.201 568.373 145.928 567.293 145.928 566.12C145.928 565.027 146.121 564.067 146.508 563.24C146.895 562.413 147.468 561.713 148.228 561.14C148.988 560.553 149.921 560.08 151.028 559.72C151.988 559.44 153.075 559.193 154.288 558.98C155.501 558.767 156.775 558.567 158.108 558.38C159.455 558.193 160.788 558.007 162.108 557.82L160.588 558.66C160.615 556.967 160.255 555.713 159.508 554.9C158.775 554.073 157.508 553.66 155.708 553.66C154.575 553.66 153.535 553.927 152.588 554.46C151.641 554.98 150.981 555.847 150.608 557.06L146.708 555.86C147.241 554.007 148.255 552.533 149.748 551.44C151.255 550.347 153.255 549.8 155.748 549.8C157.681 549.8 159.361 550.133 160.788 550.8C162.228 551.453 163.281 552.493 163.948 553.92C164.295 554.627 164.508 555.373 164.588 556.16C164.668 556.947 164.708 557.793 164.708 558.7V572H161.008V567.06L161.728 567.7C160.835 569.353 159.695 570.587 158.308 571.4C156.935 572.2 155.241 572.6 153.228 572.6ZM153.968 569.18C155.155 569.18 156.175 568.973 157.028 568.56C157.881 568.133 158.568 567.593 159.088 566.94C159.608 566.287 159.948 565.607 160.108 564.9C160.335 564.26 160.461 563.54 160.488 562.74C160.528 561.94 160.548 561.3 160.548 560.82L161.908 561.32C160.588 561.52 159.388 561.7 158.308 561.86C157.228 562.02 156.248 562.18 155.368 562.34C154.501 562.487 153.728 562.667 153.048 562.88C152.475 563.08 151.961 563.32 151.508 563.6C151.068 563.88 150.715 564.22 150.448 564.62C150.195 565.02 150.068 565.507 150.068 566.08C150.068 566.64 150.208 567.16 150.488 567.64C150.768 568.107 151.195 568.48 151.768 568.76C152.341 569.04 153.075 569.18 153.968 569.18ZM178.802 582.2C177.642 582.2 176.515 582.02 175.422 581.66C174.342 581.3 173.355 580.767 172.462 580.06C171.568 579.367 170.828 578.507 170.242 577.48L174.102 575.52C174.568 576.44 175.235 577.113 176.102 577.54C176.968 577.967 177.882 578.18 178.842 578.18C180.028 578.18 181.042 577.967 181.882 577.54C182.722 577.127 183.355 576.5 183.782 575.66C184.222 574.82 184.435 573.78 184.422 572.54V566.5H184.922V550.4H188.622V572.58C188.622 573.153 188.602 573.7 188.562 574.22C188.522 574.74 188.448 575.26 188.342 575.78C188.035 577.233 187.448 578.433 186.582 579.38C185.728 580.327 184.635 581.033 183.302 581.5C181.982 581.967 180.482 582.2 178.802 582.2ZM178.482 572.6C176.468 572.6 174.728 572.1 173.262 571.1C171.808 570.1 170.682 568.74 169.882 567.02C169.095 565.287 168.702 563.34 168.702 561.18C168.702 559.007 169.102 557.067 169.902 555.36C170.702 553.64 171.835 552.287 173.302 551.3C174.782 550.3 176.535 549.8 178.562 549.8C180.602 549.8 182.315 550.3 183.702 551.3C185.102 552.287 186.155 553.64 186.862 555.36C187.582 557.08 187.942 559.02 187.942 561.18C187.942 563.34 187.582 565.28 186.862 567C186.142 568.72 185.082 570.087 183.682 571.1C182.282 572.1 180.548 572.6 178.482 572.6ZM179.062 568.82C180.435 568.82 181.555 568.493 182.422 567.84C183.288 567.187 183.922 566.287 184.322 565.14C184.722 563.993 184.922 562.673 184.922 561.18C184.922 559.687 184.715 558.367 184.302 557.22C183.902 556.073 183.275 555.18 182.422 554.54C181.582 553.9 180.508 553.58 179.202 553.58C177.815 553.58 176.675 553.92 175.782 554.6C174.888 555.28 174.222 556.193 173.782 557.34C173.355 558.487 173.142 559.767 173.142 561.18C173.142 562.607 173.355 563.9 173.782 565.06C174.222 566.207 174.875 567.12 175.742 567.8C176.622 568.48 177.728 568.82 179.062 568.82ZM214.025 572.6C212.092 572.6 210.312 572.267 208.685 571.6C207.059 570.92 205.645 569.933 204.445 568.64C203.245 567.347 202.312 565.773 201.645 563.92C200.979 562.067 200.645 559.96 200.645 557.6C200.645 554.493 201.212 551.827 202.345 549.6C203.479 547.36 205.052 545.64 207.065 544.44C209.079 543.227 211.399 542.62 214.025 542.62C217.412 542.62 220.112 543.407 222.125 544.98C224.152 546.553 225.532 548.727 226.265 551.5L222.025 552.26C221.439 550.54 220.492 549.167 219.185 548.14C217.879 547.113 216.239 546.593 214.265 546.58C212.225 546.567 210.525 547.02 209.165 547.94C207.819 548.86 206.805 550.153 206.125 551.82C205.445 553.473 205.099 555.4 205.085 557.6C205.072 559.8 205.405 561.727 206.085 563.38C206.765 565.02 207.785 566.3 209.145 567.22C210.519 568.14 212.225 568.607 214.265 568.62C215.905 568.647 217.312 568.347 218.485 567.72C219.672 567.08 220.612 566.147 221.305 564.92C221.999 563.693 222.445 562.187 222.645 560.4H217.045V557.04H227.085C227.112 557.28 227.132 557.6 227.145 558C227.159 558.387 227.165 558.633 227.165 558.74C227.165 561.407 226.652 563.787 225.625 565.88C224.599 567.973 223.105 569.62 221.145 570.82C219.185 572.007 216.812 572.6 214.025 572.6ZM237.252 572.6C235.652 572.6 234.312 572.307 233.232 571.72C232.152 571.12 231.332 570.333 230.772 569.36C230.225 568.373 229.952 567.293 229.952 566.12C229.952 565.027 230.145 564.067 230.532 563.24C230.918 562.413 231.492 561.713 232.252 561.14C233.012 560.553 233.945 560.08 235.052 559.72C236.012 559.44 237.098 559.193 238.312 558.98C239.525 558.767 240.798 558.567 242.132 558.38C243.478 558.193 244.812 558.007 246.132 557.82L244.612 558.66C244.638 556.967 244.278 555.713 243.532 554.9C242.798 554.073 241.532 553.66 239.732 553.66C238.598 553.66 237.558 553.927 236.612 554.46C235.665 554.98 235.005 555.847 234.632 557.06L230.732 555.86C231.265 554.007 232.278 552.533 233.772 551.44C235.278 550.347 237.278 549.8 239.772 549.8C241.705 549.8 243.385 550.133 244.812 550.8C246.252 551.453 247.305 552.493 247.972 553.92C248.318 554.627 248.532 555.373 248.612 556.16C248.692 556.947 248.732 557.793 248.732 558.7V572H245.032V567.06L245.752 567.7C244.858 569.353 243.718 570.587 242.332 571.4C240.958 572.2 239.265 572.6 237.252 572.6ZM237.992 569.18C239.178 569.18 240.198 568.973 241.052 568.56C241.905 568.133 242.592 567.593 243.112 566.94C243.632 566.287 243.972 565.607 244.132 564.9C244.358 564.26 244.485 563.54 244.512 562.74C244.552 561.94 244.572 561.3 244.572 560.82L245.932 561.32C244.612 561.52 243.412 561.7 242.332 561.86C241.252 562.02 240.272 562.18 239.392 562.34C238.525 562.487 237.752 562.667 237.072 562.88C236.498 563.08 235.985 563.32 235.532 563.6C235.092 563.88 234.738 564.22 234.472 564.62C234.218 565.02 234.092 565.507 234.092 566.08C234.092 566.64 234.232 567.16 234.512 567.64C234.792 568.107 235.218 568.48 235.792 568.76C236.365 569.04 237.098 569.18 237.992 569.18ZM279.805 572L279.825 558.54C279.825 556.98 279.425 555.767 278.625 554.9C277.825 554.02 276.772 553.58 275.465 553.58C274.665 553.58 273.932 553.767 273.265 554.14C272.612 554.5 272.078 555.047 271.665 555.78C271.265 556.5 271.065 557.407 271.065 558.5L269.045 557.48C269.018 555.96 269.338 554.627 270.005 553.48C270.685 552.333 271.605 551.447 272.765 550.82C273.925 550.18 275.225 549.86 276.665 549.86C278.998 549.86 280.805 550.56 282.085 551.96C283.365 553.36 284.005 555.22 284.005 557.54L283.985 572H279.805ZM253.905 572V550.4H257.625V556.64H258.105V572H253.905ZM266.865 572L266.885 558.62C266.885 557.047 266.485 555.813 265.685 554.92C264.898 554.027 263.838 553.58 262.505 553.58C261.185 553.58 260.118 554.033 259.305 554.94C258.505 555.847 258.105 557.033 258.105 558.5L256.105 557.22C256.105 555.807 256.445 554.547 257.125 553.44C257.805 552.333 258.725 551.46 259.885 550.82C261.045 550.18 262.358 549.86 263.825 549.86C265.358 549.86 266.665 550.187 267.745 550.84C268.825 551.48 269.645 552.38 270.205 553.54C270.778 554.7 271.065 556.047 271.065 557.58L271.045 572H266.865ZM298.505 572.6C296.358 572.6 294.472 572.133 292.845 571.2C291.232 570.253 289.972 568.94 289.065 567.26C288.172 565.567 287.725 563.607 287.725 561.38C287.725 559.02 288.165 556.973 289.045 555.24C289.938 553.507 291.178 552.167 292.765 551.22C294.352 550.273 296.198 549.8 298.305 549.8C300.505 549.8 302.378 550.313 303.925 551.34C305.472 552.353 306.625 553.8 307.385 555.68C308.158 557.56 308.465 559.793 308.305 562.38H304.125V560.86C304.098 558.353 303.618 556.5 302.685 555.3C301.765 554.1 300.358 553.5 298.465 553.5C296.372 553.5 294.798 554.16 293.745 555.48C292.692 556.8 292.165 558.707 292.165 561.2C292.165 563.573 292.692 565.413 293.745 566.72C294.798 568.013 296.318 568.66 298.305 568.66C299.612 568.66 300.738 568.367 301.685 567.78C302.645 567.18 303.392 566.327 303.925 565.22L308.025 566.52C307.185 568.453 305.912 569.953 304.205 571.02C302.498 572.073 300.598 572.6 298.505 572.6ZM290.805 562.38V559.12H306.225V562.38H290.805Z" fill="#00A9CF"/>
<defs>
<filter id="filter0_d_1_16" x="114.5" y="341.5" width="211" height="211" filterUnits="userSpaceOnUse" color-interpolation-filters="sRGB">
<feFlood flood-opacity="0" result="BackgroundImageFix"/>
<feColorMatrix in="SourceAlpha" type="matrix" values="0 0 0 0 0 0 0 0 0 0 0 0 0 0 0 0 0 0 127 0" result="hardAlpha"/>
<feMorphology radius="0.5" operator="dilate" in="SourceAlpha" result="effect1_dropShadow_1_16"/>
<feOffset/>
<feGaussianBlur stdDeviation="15"/>
<feComposite in2="hardAlpha" operator="out"/>
<feColorMatrix type="matrix" values="0 0 0 0 0 0 0 0 0 0.664048 0 0 0 0 0.81312 0 0 0 1 0"/>
<feBlend mode="normal" in2="BackgroundImageFix" result="effect1_dropShadow_1_16"/>
<feBlend mode="normal" in="SourceGraphic" in2="effect1_dropShadow_1_16" result="shape"/>
</filter>
</defs>
</svg>
